<svg width="23" height="23" fill="none" xmlns="http://www.w3.org/2000/svg"><path d="M2.106 14.321a6.15 6.15 0 0 0-.096 1.021C2.01 19.565 6.397 23 11.685 23c5.289 0 9.59-3.435 9.59-7.658 0-.347-.039-.686-.095-1.021.83-.47 1.374-1.4 1.374-2.46 0-1.535-1.147-2.784-2.557-2.784-.645 0-1.25.263-1.715.721-1.607-1.22-3.739-1.995-6.096-2.093l1.223-5.168 2.76 1.051c.04 1.498 1.164 2.704 2.55 2.704 1.41 0 2.556-1.249 2.556-2.785 0-1.535-1.146-2.784-2.557-2.784-.983 0-1.829.614-2.256 1.502L12.519.723l-1.657 6.995c-2.23.152-4.325.916-5.859 2.08a2.433 2.433 0 0 0-1.714-.721C1.879 9.077.73 10.326.73 11.86c0 1.06.546 1.99 1.375 2.46Zm13.416-2.46c1.057 0 1.917.937 1.917 2.089s-.86 2.088-1.918 2.088c-1.057 0-1.918-.937-1.918-2.088 0-1.152.86-2.089 1.918-2.089Zm-.274 6.15.547 1.258c-1.2.62-2.621.947-4.11.947-1.488 0-2.994-.328-4.194-.947l.547-1.258c2.06 1.062 5.15 1.062 7.21 0Zm-7.484-6.15c1.058 0 1.918.937 1.918 2.089s-.86 2.088-1.918 2.088c-1.057 0-1.918-.937-1.918-2.088 0-1.152.86-2.089 1.918-2.089Z" fill="#fff"/></svg>