<svg width="24" height="18" fill="none" xmlns="http://www.w3.org/2000/svg"><path d="M9.134 18c-1.011 0-2.052-.075-3.099-.225-1.844-.264-3.71-1.147-4.239-1.41L.411 15.67l1.5-.45c1.64-.494 2.637-.8 3.872-1.279-1.237-.547-2.19-1.532-2.648-2.806l-.349-.969.286.04a4.866 4.866 0 0 1-.652-.735c-.59-.82-.903-1.823-.836-2.682l.065-.846.554.196A4.477 4.477 0 0 1 1.7 4.855c-.241-1.101-.039-2.271.57-3.294l.482-.81.645.709c2.04 2.24 4.623 3.57 7.689 3.96-.125-.79-.032-1.552.279-2.235.362-.796 1.005-1.47 1.86-1.95.949-.534 2.1-.793 3.242-.729 1.21.068 2.31.483 3.182 1.2.427-.1.74-.209 1.166-.355.255-.088.545-.188.907-.302L23.06.63l-.871 2.275c.057-.005.117-.008.178-.01l1.427-.06-.843 1.054c-.049.06-.061.078-.078.101-.068.094-.153.21-1.31 1.624-.29.354-.434.815-.407 1.298.102 1.836-.144 3.498-.733 4.939a8.746 8.746 0 0 1-2.565 3.475c-1.416 1.167-3.223 1.966-5.37 2.375-1.052.2-2.183.3-3.353.3Z" fill="#fff"/></svg>